<mxfile host="app.diagrams.net" modified="2024-04-01T20:47:06.664Z" agent="Mozilla/5.0 (Windows NT 10.0; Win64; x64) AppleWebKit/537.36 (KHTML, like Gecko) Chrome/123.0.0.0 Safari/537.36" etag="E2Sxl3pqLKTGlHSQmIJj" version="24.2.0" type="github">
  <diagram name="Page-1" id="RV1kY6cAjVvH3hrHrRqD">
    <mxGraphModel dx="1220" dy="660" grid="1" gridSize="10" guides="1" tooltips="1" connect="1" arrows="1" fold="1" page="1" pageScale="1" pageWidth="850" pageHeight="1100" math="0" shadow="0">
      <root>
        <mxCell id="0" />
        <mxCell id="1" parent="0" />
        <mxCell id="7OdFK4bL4kkAdBpNJm-u-1" value="&lt;font style=&quot;font-size: 19px;&quot;&gt;Осмоля&lt;font color=&quot;#cc0000&quot;&gt;Р&lt;/font&gt;ность&lt;/font&gt;&lt;div&gt;&lt;font style=&quot;font-size: 19px;&quot;&gt;osmol / &lt;/font&gt;&lt;font color=&quot;#cc0000&quot; style=&quot;font-size: 23px;&quot;&gt;L&lt;/font&gt;&lt;/div&gt;" style="ellipse;whiteSpace=wrap;html=1;" vertex="1" parent="1">
          <mxGeometry x="65" y="90" width="260" height="170" as="geometry" />
        </mxCell>
        <mxCell id="7OdFK4bL4kkAdBpNJm-u-2" value="&lt;font style=&quot;font-size: 18px;&quot;&gt;Осмоля&lt;font color=&quot;#cc0000&quot;&gt;Л&lt;/font&gt;ьность&lt;/font&gt;&lt;div&gt;&lt;font style=&quot;font-size: 18px;&quot;&gt;osmol / &lt;/font&gt;&lt;font color=&quot;#990000&quot; style=&quot;font-size: 23px;&quot;&gt;KG&lt;/font&gt;&lt;/div&gt;" style="ellipse;whiteSpace=wrap;html=1;" vertex="1" parent="1">
          <mxGeometry x="530" y="95" width="250" height="160" as="geometry" />
        </mxCell>
        <mxCell id="7OdFK4bL4kkAdBpNJm-u-3" value="&lt;b&gt;&lt;font style=&quot;font-size: 22px;&quot;&gt;VS&lt;/font&gt;&lt;/b&gt;" style="rounded=1;whiteSpace=wrap;html=1;" vertex="1" parent="1">
          <mxGeometry x="380" y="145" width="70" height="60" as="geometry" />
        </mxCell>
        <mxCell id="7OdFK4bL4kkAdBpNJm-u-4" value="&lt;font style=&quot;font-size: 17px;&quot;&gt;Можно расчитать&lt;/font&gt;" style="rounded=0;whiteSpace=wrap;html=1;" vertex="1" parent="1">
          <mxGeometry x="40" y="290" width="310" height="60" as="geometry" />
        </mxCell>
        <mxCell id="7OdFK4bL4kkAdBpNJm-u-5" value="&lt;font style=&quot;font-size: 14px;&quot;&gt;Измеряется в лаборатории(осмометр)&lt;/font&gt;" style="rounded=0;whiteSpace=wrap;html=1;" vertex="1" parent="1">
          <mxGeometry x="510" y="290" width="270" height="60" as="geometry" />
        </mxCell>
        <mxCell id="7OdFK4bL4kkAdBpNJm-u-6" value="&lt;font color=&quot;#cc0000&quot; style=&quot;font-size: 21px;&quot;&gt;85%&lt;/font&gt;&lt;font style=&quot;font-size: 15px;&quot;&gt; Натрий 15% глюкоза и мочевина&lt;/font&gt;" style="rounded=0;whiteSpace=wrap;html=1;" vertex="1" parent="1">
          <mxGeometry x="240" y="20" width="310" height="50" as="geometry" />
        </mxCell>
        <mxCell id="7OdFK4bL4kkAdBpNJm-u-7" value="&lt;span style=&quot;color: rgb(32, 33, 34); font-family: sans-serif; font-size: 17.5px; text-align: start; background-color: rgb(255, 255, 255);&quot;&gt;1,86× (Na + K) + ureum + glucose&amp;nbsp;&lt;/span&gt;&lt;div&gt;&lt;span style=&quot;color: rgb(32, 33, 34); font-family: sans-serif; font-size: 17.5px; text-align: start; background-color: rgb(255, 255, 255);&quot;&gt;(всё в&amp;nbsp; mmol/L)&lt;/span&gt;&lt;/div&gt;" style="rounded=0;whiteSpace=wrap;html=1;" vertex="1" parent="1">
          <mxGeometry x="40" y="390" width="370" height="60" as="geometry" />
        </mxCell>
        <mxCell id="7OdFK4bL4kkAdBpNJm-u-9" value="&lt;font style=&quot;font-size: 19px;&quot;&gt;Осмоля&lt;font color=&quot;#cc0000&quot;&gt;Р&lt;/font&gt;ность =&amp;nbsp;&lt;/font&gt;&lt;font style=&quot;font-size: 19px;&quot;&gt;Осмоля&lt;font color=&quot;#cc0000&quot;&gt;Л&lt;/font&gt;ность * 0.995&lt;/font&gt;" style="whiteSpace=wrap;html=1;" vertex="1" parent="1">
          <mxGeometry x="170" y="500" width="450" height="60" as="geometry" />
        </mxCell>
        <mxCell id="7OdFK4bL4kkAdBpNJm-u-10" value="&lt;font color=&quot;#0066cc&quot; style=&quot;font-size: 19px;&quot;&gt;Осмометр&lt;/font&gt;" style="shape=cube;whiteSpace=wrap;html=1;boundedLbl=1;backgroundOutline=1;darkOpacity=0.05;darkOpacity2=0.1;" vertex="1" parent="1">
          <mxGeometry x="570" y="390" width="200" height="80" as="geometry" />
        </mxCell>
        <mxCell id="7OdFK4bL4kkAdBpNJm-u-11" value="" style="outlineConnect=0;dashed=0;verticalLabelPosition=bottom;verticalAlign=top;align=center;html=1;shape=mxgraph.aws3.thermostat;fillColor=#5294CF;gradientColor=none;" vertex="1" parent="1">
          <mxGeometry x="600" y="420" width="30" height="40" as="geometry" />
        </mxCell>
      </root>
    </mxGraphModel>
  </diagram>
</mxfile>
